<svg xmlns="http://www.w3.org/2000/svg" width="1024" height="400" viewBox="0 0 1024 400"><rect width="100%" height="100%" fill="#DDDDDD"/><path fill="#999999" d="M225.44 218.27h32.94v12.65H210.1V148.5h15.34zm72.56-2.46v-9.86q-6.1.29-10.26 1.06t-6.67 1.96q-2.51 1.2-3.59 2.8-1.09 1.59-1.09 3.47 0 3.71 2.2 5.31 2.19 1.59 5.73 1.59 4.33 0 7.49-1.57 3.17-1.56 6.19-4.76m-29.76-30.72-2.51-4.5q10.09-9.24 24.29-9.24 5.13 0 9.17 1.69 4.05 1.68 6.84 4.67 2.8 2.99 4.25 7.15t1.45 9.12v36.94h-6.38q-2 0-3.08-.6t-1.71-2.42l-1.25-4.22q-2.23 2-4.33 3.51-2.11 1.51-4.39 2.53-2.28 1.03-4.88 1.57-2.59.54-5.73.54-3.7 0-6.84-1-3.13-.99-5.41-2.99-2.28-1.99-3.53-4.96-1.26-2.96-1.26-6.89 0-2.23.74-4.42.74-2.2 2.43-4.19 1.68-2 4.36-3.76 2.67-1.77 6.58-3.08 3.9-1.31 9.09-2.14 5.19-.82 11.86-1v-3.42q0-5.87-2.51-8.69t-7.24-2.82q-3.42 0-5.67.8t-3.96 1.79q-1.71 1-3.11 1.8t-3.11.8q-1.48 0-2.5-.77-1.03-.77-1.66-1.8m69.14-9.12.86 6.61q2.73-5.24 6.5-8.23 3.76-3 8.89-3 4.05 0 6.5 1.77l-.92 10.55q-.28 1.02-.82 1.45t-1.46.43q-.85 0-2.53-.29-1.68-.28-3.28-.28-2.34 0-4.16.68-1.82.69-3.28 1.97-1.45 1.28-2.56 3.1-1.11 1.83-2.08 4.17v36.02h-14.08v-58.48h8.26q2.17 0 3.02.77.86.77 1.14 2.76m51.47 24.28q2.63 0 4.56-.71 1.94-.71 3.23-1.96 1.28-1.26 1.93-3.03.66-1.76.66-3.87 0-4.33-2.59-6.87-2.6-2.54-7.79-2.54-5.18 0-7.78 2.54-2.59 2.54-2.59 6.87 0 2.05.66 3.82.65 1.76 1.93 3.05 1.29 1.28 3.25 1.99 1.97.71 4.53.71m15.91 33.29q0-1.71-1.03-2.79-1.02-1.08-2.79-1.68t-4.13-.89q-2.37-.28-5.02-.42-2.65-.15-5.47-.26t-5.5-.46q-2.34 1.32-3.79 3.08-1.46 1.77-1.46 4.11 0 1.53.77 2.87t2.45 2.31q1.69.97 4.36 1.51 2.68.54 6.56.54 3.93 0 6.78-.59 2.85-.6 4.71-1.66 1.85-1.05 2.7-2.5.86-1.46.86-3.17m-2.8-59.11h16.82v5.25q0 2.51-3.02 3.08l-5.25.96q1.2 3.02 1.2 6.62 0 4.33-1.74 7.83-1.74 3.51-4.81 5.96-3.08 2.45-7.27 3.79t-9.04 1.34q-1.71 0-3.3-.17-1.6-.17-3.14-.46-2.73 1.66-2.73 3.71 0 1.76 1.62 2.59 1.63.83 4.31 1.17 2.67.34 6.09.43 3.42.08 7.02.37 3.59.28 7.01 1 3.42.71 6.1 2.25 2.67 1.54 4.3 4.19 1.62 2.65 1.62 6.81 0 3.87-1.91 7.52t-5.52 6.5q-3.62 2.85-8.9 4.59-5.27 1.74-12 1.74-6.61 0-11.51-1.29-4.9-1.28-8.15-3.42-3.25-2.13-4.85-4.93-1.59-2.79-1.59-5.81 0-4.1 2.48-6.87 2.48-2.76 6.81-4.42-2.34-1.19-3.71-3.19-1.36-1.99-1.36-5.24 0-1.31.48-2.71.49-1.4 1.43-2.76.94-1.37 2.36-2.6 1.43-1.22 3.36-2.19-4.44-2.4-6.98-6.39-2.53-3.99-2.53-9.34 0-4.34 1.73-7.84 1.74-3.51 4.85-5.99t7.35-3.79q4.25-1.31 9.26-1.31 3.77 0 7.07.77 3.31.77 6.04 2.25m36.83 20.52h26.56q0-2.73-.77-5.16-.77-2.42-2.31-4.24-1.54-1.83-3.9-2.88-2.37-1.05-5.5-1.05-6.1 0-9.61 3.47-3.5 3.48-4.47 9.86m35.91 8.5h-36.2q.34 4.5 1.6 7.78 1.25 3.27 3.3 5.41 2.06 2.14 4.88 3.19 2.82 1.06 6.24 1.06t5.9-.8 4.33-1.77 3.25-1.76q1.4-.8 2.71-.8 1.76 0 2.62 1.31l4.05 5.13q-2.34 2.73-5.25 4.59-2.91 1.85-6.07 2.96t-6.44 1.57q-3.28.45-6.36.45-6.09 0-11.34-2.02-5.24-2.02-9.12-5.98-3.87-3.97-6.1-9.81-2.22-5.84-2.22-13.54 0-5.98 1.94-11.25t5.56-9.18q3.61-3.9 8.83-6.18t11.77-2.28q5.53 0 10.2 1.76 4.68 1.77 8.04 5.16t5.27 8.32 1.91 11.26q0 3.19-.68 4.3-.69 1.12-2.62 1.12m59.16-54.95v82.42h-15.39V148.5zm30.27 82.42h-14.08v-58.48h8.61q2.73 0 3.59 2.56l.91 4.33q1.54-1.71 3.22-3.13 1.68-1.43 3.59-2.45 1.91-1.03 4.11-1.63 2.19-.59 4.81-.59 5.53 0 9.09 2.99 3.57 2.99 5.33 7.95 1.37-2.91 3.42-4.99 2.06-2.08 4.51-3.39t5.21-1.94q2.77-.62 5.56-.62 4.84 0 8.61 1.48 3.76 1.48 6.32 4.33 2.57 2.85 3.91 6.95 1.34 4.11 1.34 9.41v37.22h-14.08V193.7q0-5.59-2.45-8.41t-7.18-2.82q-2.17 0-4.02.74-1.86.74-3.25 2.14-1.4 1.39-2.2 3.5-.79 2.11-.79 4.85v37.22h-14.14V193.7q0-5.87-2.37-8.55-2.36-2.68-6.92-2.68-3.08 0-5.73 1.51t-4.93 4.13zm112.29-15.11v-9.86q-6.1.29-10.26 1.06t-6.67 1.96q-2.51 1.2-3.59 2.8-1.08 1.59-1.08 3.47 0 3.71 2.19 5.31 2.2 1.59 5.73 1.59 4.33 0 7.5-1.57 3.16-1.56 6.18-4.76m-29.75-30.72-2.51-4.5q10.09-9.24 24.28-9.24 5.13 0 9.18 1.69 4.04 1.68 6.84 4.67 2.79 2.99 4.24 7.15 1.46 4.16 1.46 9.12v36.94h-6.39q-1.99 0-3.08-.6-1.08-.6-1.71-2.42l-1.25-4.22q-2.22 2-4.33 3.51t-4.39 2.53q-2.28 1.03-4.87 1.57-2.6.54-5.73.54-3.71 0-6.84-1-3.14-.99-5.42-2.99-2.28-1.99-3.53-4.96-1.26-2.96-1.26-6.89 0-2.23.75-4.42.74-2.2 2.42-4.19 1.68-2 4.36-3.76 2.68-1.77 6.58-3.08 3.91-1.31 9.09-2.14 5.19-.82 11.86-1v-3.42q0-5.87-2.51-8.69t-7.24-2.82q-3.42 0-5.67.8t-3.96 1.79q-1.71 1-3.11 1.8-1.39.8-3.1.8-1.49 0-2.51-.77-1.03-.77-1.65-1.8m78.09 15.16q2.62 0 4.56-.71 1.93-.71 3.22-1.96 1.28-1.26 1.93-3.03.66-1.76.66-3.87 0-4.33-2.59-6.87-2.6-2.54-7.78-2.54-5.19 0-7.78 2.54-2.6 2.54-2.6 6.87 0 2.05.66 3.82.65 1.76 1.94 3.05 1.28 1.28 3.24 1.99 1.97.71 4.54.71m15.9 33.29q0-1.71-1.03-2.79-1.02-1.08-2.79-1.68t-4.13-.89q-2.37-.28-5.02-.42-2.65-.15-5.47-.26t-5.5-.46q-2.34 1.32-3.79 3.08-1.46 1.77-1.46 4.11 0 1.53.77 2.87t2.46 2.31q1.68.97 4.36 1.51 2.67.54 6.55.54 3.93 0 6.78-.59 2.85-.6 4.71-1.66 1.85-1.05 2.7-2.5.86-1.46.86-3.17m-2.79-59.11h16.81v5.25q0 2.51-3.02 3.08l-5.24.96q1.19 3.02 1.19 6.62 0 4.33-1.74 7.83-1.73 3.51-4.81 5.96t-7.27 3.79-9.03 1.34q-1.71 0-3.31-.17t-3.14-.46q-2.73 1.66-2.73 3.71 0 1.76 1.62 2.59 1.63.83 4.31 1.17t6.1.43q3.42.08 7.01.37 3.59.28 7.01 1 3.42.71 6.1 2.25t4.3 4.19 1.62 6.81q0 3.87-1.9 7.52-1.91 3.65-5.53 6.5t-8.9 4.59q-5.27 1.74-11.99 1.74-6.62 0-11.52-1.29-4.9-1.28-8.15-3.42-3.25-2.13-4.84-4.93-1.6-2.79-1.6-5.81 0-4.1 2.48-6.87 2.48-2.76 6.81-4.42-2.34-1.19-3.7-3.19-1.37-1.99-1.37-5.24 0-1.31.48-2.71.49-1.4 1.43-2.76.94-1.37 2.36-2.6 1.43-1.22 3.37-2.19-4.45-2.4-6.99-6.39-2.53-3.99-2.53-9.34 0-4.34 1.74-7.84 1.73-3.51 4.84-5.99t7.35-3.79q4.25-1.31 9.27-1.31 3.76 0 7.06.77 3.31.77 6.05 2.25m36.82 20.52h26.56q0-2.73-.77-5.16-.77-2.42-2.31-4.24-1.54-1.83-3.9-2.88-2.37-1.05-5.5-1.05-6.1 0-9.61 3.47-3.5 3.48-4.47 9.86m35.91 8.5h-36.2q.34 4.5 1.6 7.78 1.25 3.27 3.3 5.41 2.06 2.14 4.88 3.19 2.82 1.06 6.24 1.06t5.9-.8 4.33-1.77 3.25-1.76q1.4-.8 2.71-.8 1.76 0 2.62 1.31l4.05 5.13q-2.34 2.73-5.25 4.59-2.9 1.85-6.07 2.96-3.16 1.11-6.44 1.57-3.28.45-6.35.45-6.1 0-11.35-2.02-5.24-2.02-9.12-5.98-3.87-3.97-6.1-9.81-2.22-5.84-2.22-13.54 0-5.98 1.94-11.25t5.56-9.18q3.62-3.9 8.83-6.18 5.22-2.28 11.77-2.28 5.53 0 10.2 1.76 4.68 1.77 8.04 5.16t5.27 8.32 1.91 11.26q0 3.19-.68 4.3-.68 1.12-2.62 1.12"/></svg>